<?xml version="1.0" encoding="iso-8859-1"?>
<!-- Uploaded to: SVG Repo, www.svgrepo.com, Generator: SVG Repo Mixer Tools -->
<svg fill="#000000" height="800px" width="800px" version="1.1" id="Layer_1" xmlns="http://www.w3.org/2000/svg" xmlns:xlink="http://www.w3.org/1999/xlink" 
	 viewBox="0 0 512 512" xml:space="preserve">
<g>
	<g>
		<path d="M489.496,464.387h-97.505V397.89h58.571c0.049,0,0.098,0.006,0.146,0.006c0.695,0,1.394-0.045,2.094-0.111
			c0.192-0.018,0.383-0.042,0.573-0.065c0.462-0.055,0.923-0.126,1.385-0.212c0.26-0.047,0.518-0.091,0.774-0.147
			c0.39-0.086,0.779-0.192,1.169-0.3c1.709-0.471,3.344-1.119,4.864-1.958c0.009-0.004,0.016-0.01,0.025-0.015
			c0.627-0.347,1.236-0.722,1.826-1.124c0.165-0.113,0.317-0.24,0.479-0.357c0.428-0.309,0.852-0.62,1.256-0.957
			c0.174-0.146,0.332-0.305,0.501-0.455c0.378-0.336,0.756-0.672,1.11-1.032c0.121-0.123,0.23-0.257,0.348-0.383
			c0.386-0.411,0.765-0.827,1.119-1.265c0.049-0.062,0.093-0.128,0.141-0.189c3.034-3.835,4.858-8.67,4.858-13.939
			c0-2.456-0.407-4.814-1.134-7.027l-80.408-259.655c-0.251-0.864-0.554-1.71-0.906-2.535c-0.027-0.065-0.06-0.123-0.087-0.188
			c-0.263-0.602-0.545-1.193-0.858-1.769c-0.097-0.18-0.207-0.348-0.309-0.525c-0.263-0.453-0.53-0.902-0.822-1.335
			c-0.137-0.201-0.285-0.39-0.426-0.587c-0.287-0.398-0.578-0.791-0.891-1.169c-0.147-0.177-0.305-0.344-0.456-0.515
			c-0.335-0.381-0.675-0.756-1.037-1.115c-0.137-0.135-0.282-0.261-0.423-0.393c-0.395-0.371-0.795-0.735-1.218-1.079
			c-0.123-0.101-0.254-0.191-0.378-0.288c-0.449-0.348-0.903-0.687-1.38-1.004c-0.129-0.086-0.264-0.161-0.395-0.243
			c-0.476-0.3-0.957-0.594-1.46-0.861c-0.185-0.097-0.377-0.18-0.564-0.273c-0.455-0.225-0.908-0.45-1.382-0.647
			c-0.333-0.138-0.675-0.249-1.014-0.371c-0.317-0.114-0.621-0.246-0.945-0.345c-0.031-0.01-0.063-0.015-0.095-0.024
			c-0.602-0.185-1.215-0.333-1.832-0.467c-0.107-0.022-0.212-0.058-0.318-0.079c-0.732-0.147-1.473-0.26-2.222-0.333
			c-0.01-0.002-0.023,0-0.033-0.002c-0.722-0.07-1.448-0.107-2.18-0.107c-0.201,0-0.399,0.024-0.6,0.03
			c-0.677,0.018-1.356,0.065-2.037,0.146c-0.582,0.07-1.164,0.146-1.737,0.261c-0.309,0.062-0.618,0.156-0.927,0.233
			c-0.411,0.101-0.825,0.191-1.229,0.314c-0.039,0.012-0.078,0.018-0.117,0.03c-0.396,0.123-0.77,0.281-1.154,0.423
			c-0.261,0.097-0.527,0.18-0.785,0.287c-0.519,0.215-1.019,0.459-1.514,0.708c-0.144,0.072-0.291,0.135-0.434,0.21
			c-0.531,0.281-1.04,0.59-1.541,0.908c-0.105,0.068-0.213,0.128-0.318,0.195c-0.497,0.327-0.969,0.68-1.434,1.043
			c-0.108,0.086-0.222,0.164-0.329,0.251c-0.435,0.353-0.848,0.726-1.253,1.109c-0.131,0.123-0.266,0.24-0.393,0.365
			c-0.369,0.365-0.716,0.747-1.056,1.136c-0.146,0.167-0.297,0.326-0.44,0.497c-0.317,0.381-0.609,0.779-0.899,1.179
			c-0.14,0.194-0.287,0.38-0.42,0.578c-0.294,0.435-0.561,0.884-0.824,1.338c-0.102,0.175-0.212,0.344-0.308,0.522
			c-0.314,0.576-0.596,1.166-0.857,1.767c-0.029,0.065-0.062,0.125-0.089,0.19c-0.351,0.825-0.654,1.67-0.905,2.534l-80.477,259.877
			c-0.243,0.768-0.449,1.554-0.609,2.355c-0.071,0.35-0.107,0.698-0.161,1.047c-0.057,0.377-0.131,0.749-0.17,1.131
			c-0.234,2.285-0.113,4.552,0.332,6.735c0.081,0.401,0.195,0.789,0.297,1.182c0.079,0.303,0.143,0.611,0.234,0.909
			c0.151,0.497,0.336,0.978,0.519,1.46c0.074,0.19,0.132,0.387,0.21,0.576c0.197,0.474,0.422,0.932,0.65,1.388
			c0.096,0.194,0.18,0.392,0.281,0.582c0.215,0.402,0.455,0.785,0.692,1.172c0.146,0.237,0.279,0.482,0.434,0.714
			c0.207,0.311,0.435,0.603,0.657,0.903c0.215,0.291,0.422,0.588,0.651,0.87c0.183,0.224,0.383,0.432,0.575,0.648
			c0.293,0.333,0.582,0.668,0.894,0.984c0.161,0.162,0.335,0.308,0.5,0.465c0.362,0.344,0.722,0.687,1.107,1.007
			c0.17,0.141,0.353,0.266,0.527,0.402c0.393,0.307,0.785,0.617,1.202,0.899c0.275,0.188,0.567,0.35,0.851,0.524
			c0.33,0.203,0.65,0.416,0.992,0.603c1.421,0.779,2.941,1.394,4.526,1.853c0.497,0.144,0.993,0.275,1.491,0.384
			c0.222,0.048,0.449,0.086,0.674,0.128c0.495,0.093,0.99,0.168,1.485,0.227c0.171,0.02,0.342,0.042,0.515,0.059
			c0.704,0.066,1.407,0.113,2.105,0.113c0.049,0,0.098-0.006,0.146-0.006h57.395v66.497H161.185v-92.125h78.602
			c0.05,0,0.098,0.006,0.146,0.006c0.695,0,1.392-0.045,2.091-0.111c0.198-0.018,0.393-0.044,0.59-0.066
			c0.453-0.054,0.905-0.125,1.358-0.207c0.269-0.048,0.536-0.093,0.801-0.151c0.36-0.08,0.719-0.18,1.079-0.278
			c2.462-0.668,4.763-1.725,6.814-3.131c0.091-0.063,0.174-0.134,0.264-0.198c0.504-0.357,0.999-0.725,1.472-1.121
			c0.111-0.093,0.213-0.197,0.323-0.293c0.443-0.386,0.878-0.78,1.29-1.2c0.065-0.066,0.123-0.14,0.188-0.207
			c3.869-4.042,6.261-9.512,6.261-15.549c0-2.481-0.417-4.861-1.158-7.092L161.041,18.905c-0.459-1.593-1.091-3.125-1.883-4.574
			c-0.068-0.125-0.146-0.242-0.215-0.365c-0.291-0.509-0.593-1.01-0.921-1.496c-0.105-0.154-0.219-0.3-0.329-0.452
			c-0.318-0.444-0.644-0.882-0.995-1.304c-0.112-0.135-0.233-0.261-0.348-0.393c-0.369-0.423-0.747-0.837-1.148-1.233
			c-0.099-0.098-0.204-0.189-0.306-0.285c-0.431-0.41-0.872-0.807-1.337-1.184c-0.081-0.066-0.168-0.126-0.251-0.191
			c-0.486-0.383-0.986-0.752-1.506-1.095c-0.084-0.055-0.172-0.104-0.258-0.159c-0.518-0.332-1.044-0.65-1.593-0.939
			c-0.134-0.07-0.272-0.129-0.407-0.198c-0.503-0.252-1.007-0.5-1.533-0.717c-0.272-0.113-0.551-0.201-0.827-0.302
			c-0.368-0.135-0.728-0.287-1.109-0.405c-0.038-0.012-0.075-0.018-0.113-0.029c-0.486-0.148-0.984-0.263-1.481-0.378
			c-0.222-0.051-0.444-0.123-0.668-0.167c-0.725-0.146-1.457-0.257-2.198-0.33c-0.151-0.015-0.303-0.01-0.455-0.023
			c-0.585-0.047-1.17-0.086-1.761-0.086c-0.297,0-0.59,0.031-0.885,0.044c-0.443,0.018-0.885,0.023-1.329,0.068
			c-0.731,0.074-1.455,0.183-2.169,0.326c-0.293,0.059-0.584,0.149-0.876,0.219c-0.428,0.104-0.858,0.198-1.278,0.327
			c-0.039,0.012-0.078,0.018-0.117,0.03c-0.393,0.122-0.765,0.279-1.148,0.42c-0.263,0.097-0.53,0.182-0.788,0.288
			c-0.528,0.218-1.035,0.467-1.539,0.72c-0.133,0.068-0.272,0.126-0.405,0.197c-0.546,0.29-1.07,0.606-1.584,0.935
			c-0.089,0.057-0.18,0.108-0.269,0.165c-0.515,0.339-1.007,0.704-1.487,1.08c-0.09,0.07-0.183,0.135-0.273,0.207
			c-0.458,0.371-0.893,0.762-1.317,1.166c-0.108,0.102-0.219,0.198-0.326,0.303c-0.395,0.39-0.767,0.798-1.13,1.214
			c-0.122,0.138-0.247,0.27-0.365,0.413c-0.344,0.414-0.665,0.845-0.977,1.281c-0.114,0.159-0.234,0.312-0.345,0.474
			c-0.324,0.477-0.62,0.971-0.906,1.47c-0.075,0.131-0.156,0.255-0.228,0.389c-0.789,1.448-1.421,2.978-1.88,4.568L17.435,342.951
			c-0.243,0.768-0.449,1.554-0.609,2.355c-0.071,0.35-0.107,0.698-0.161,1.047c-0.057,0.377-0.13,0.749-0.169,1.131
			c-0.234,2.285-0.113,4.552,0.332,6.735c0.081,0.401,0.195,0.789,0.297,1.182c0.08,0.303,0.143,0.611,0.234,0.909
			c0.151,0.497,0.336,0.978,0.519,1.46c0.073,0.191,0.132,0.387,0.21,0.576c0.197,0.474,0.422,0.932,0.65,1.388
			c0.096,0.194,0.18,0.392,0.281,0.582c0.215,0.402,0.455,0.785,0.692,1.172c0.146,0.237,0.279,0.482,0.434,0.714
			c0.207,0.311,0.435,0.603,0.657,0.903c0.215,0.291,0.422,0.588,0.651,0.87c0.183,0.224,0.383,0.432,0.575,0.648
			c0.293,0.333,0.582,0.668,0.894,0.984c0.161,0.162,0.335,0.308,0.5,0.465c0.362,0.344,0.722,0.687,1.107,1.007
			c0.17,0.141,0.353,0.266,0.527,0.402c0.393,0.308,0.785,0.617,1.202,0.899c0.275,0.188,0.567,0.35,0.851,0.524
			c0.33,0.203,0.65,0.416,0.992,0.603c1.421,0.779,2.941,1.394,4.526,1.853c0.497,0.144,0.993,0.275,1.491,0.384
			c0.222,0.048,0.449,0.086,0.674,0.128c0.495,0.093,0.99,0.168,1.485,0.227c0.171,0.02,0.342,0.042,0.515,0.059
			c0.704,0.066,1.407,0.112,2.105,0.112c0.049,0,0.098-0.006,0.146-0.006h77.137v92.125H22.504C10.076,464.388,0,474.464,0,486.893
			c0,12.428,10.076,22.504,22.504,22.504h466.991c12.428,0,22.504-10.076,22.504-22.504
			C512,474.464,501.924,464.387,489.496,464.387z M69.414,327.253l69.999-226.042l69.999,226.042H69.414z M319.96,352.881
			l50.114-161.825l50.113,161.825H319.96z"/>
	</g>
</g>
</svg>